<?xml version="1.0" encoding="utf-8"?>
<!-- Generator: Adobe Illustrator 25.4.1, SVG Export Plug-In . SVG Version: 6.00 Build 0)  -->
<svg version="1.1" id="Layer_1" xmlns="http://www.w3.org/2000/svg" xmlns:xlink="http://www.w3.org/1999/xlink" x="0px" y="0px"
	 viewBox="0 0 232.4 267.4" style="enable-background:new 0 0 232.4 267.4;" xml:space="preserve">
<style type="text/css">
	.st0{fill:#D37C21;}
	.st1{fill:#EB9924;}
	.st2{fill:#00A5C2;}
	.st3{fill:#00C1D5;}
	.st4{fill:#ED8B00;}
	.st5{fill:#E8E9DF;}
	.st6{fill:#00709E;}
	.st7{fill:#D0CBC3;}
	.st8{fill:#003B7A;}
	.st9{fill:none;}
</style>
<g>
	<path class="st2" d="M9.7,0h109.3l66.7,267.4h-144c-23,0-41.8-19.7-41.8-43.8V9.7C0,4.4,4.4,0,9.7,0"/>
	<path class="st3" d="M222.7,0H113.4L46.7,267.4h144c23,0,41.8-19.7,41.8-43.8V9.7C232.4,4.4,228.1,0,222.7,0"/>
	<path class="st5" d="M202.6,205.8H35c-3.2,0-5.8-3.4-5.8-7.5v0c0-4.1,2.6-7.5,5.8-7.5h167.6c3.2,0,5.8,3.4,5.8,7.5v0
		C208.4,202.4,205.8,205.8,202.6,205.8z"/>
	<path class="st5" d="M202.6,175.8H35c-3.2,0-5.8-3.4-5.8-7.5v0c0-4.1,2.6-7.5,5.8-7.5h167.6c3.2,0,5.8,3.4,5.8,7.5v0
		C208.4,172.4,205.8,175.8,202.6,175.8z"/>
	<path class="st6" d="M202.6,145.2H35c-3.2,0-5.8-3.4-5.8-7.5v0c0-4.1,2.6-7.5,5.8-7.5h167.6c3.2,0,5.8,3.4,5.8,7.5v0
		C208.4,141.9,205.8,145.2,202.6,145.2z"/>
	<path class="st5" d="M133,235.9H35c-3.2,0-5.8-3.4-5.8-7.5v-0.2c0-4.1,2.6-7.5,5.8-7.5h98c3.2,0,5.8,3.4,5.8,7.5v0.2
		C138.8,232.5,136.2,235.9,133,235.9z"/>
	<path class="st7" d="M62,205.8H35c-3.2,0-5.8-3.4-5.8-7.5v0c0-4.1,2.6-7.5,5.8-7.5h30.8L62,205.8z"/>
	<path class="st7" d="M69.5,175.8H35c-3.2,0-5.8-3.4-5.8-7.5v0c0-4.1,2.6-7.5,5.8-7.5h38.3L69.5,175.8z"/>
	<path class="st8" d="M77.1,145.2H35c-3.2,0-5.8-3.4-5.8-7.5v0c0-4.1,2.6-7.5,5.8-7.5h45.9L77.1,145.2z"/>
	<path class="st7" d="M54.5,235.9H35c-3.2,0-5.8-3.4-5.8-7.5v-0.2c0-4.1,2.6-7.5,5.8-7.5h23.3L54.5,235.9z"/>
	<rect x="29.5" y="31.9" class="st1" width="173.7" height="70.1"/>
	<polygon class="st4" points="87.9,102 29.5,102 29.5,31.9 105.4,31.9 	"/>
	<rect class="st9" width="232.4" height="267.4"/>
</g>
</svg>
