<svg xmlns="http://www.w3.org/2000/svg" width="87.769" height="98.529" viewBox="0 0 87.769 98.529">
  <g id="proteccion-al-usuario" transform="translate(0.5 0.5)">
    <g id="Group_89" data-name="Group 89" transform="translate(21.365 12.192)">
      <g id="Group_28" data-name="Group 28">
        <g id="Group_27" data-name="Group 27">
          <path id="Path_30" data-name="Path 30" d="M648.365,1059.612a16.644,16.644,0,0,0-4.774-1.149l-3.841,15.4h11.8a.865.865,0,0,0,.863-.81c.014-.23.351-5.642.351-7.041A6.58,6.58,0,0,0,648.365,1059.612Z" transform="translate(-626.744 -1039.191)" fill="#3bc2d4"/>
          <path id="Path_31" data-name="Path 31" d="M610.245,1057.853c-8.661,0-13.052,2.6-13.052,7.739,0,1.4.31,6.808.323,7.036a.865.865,0,0,0,.864.815H610.2l3.841-15.4A35.229,35.229,0,0,0,610.245,1057.853Z" transform="translate(-597.193 -1038.767)" fill="#359fbc"/>
          <g id="Group_26" data-name="Group 26" transform="translate(6.946)">
            <path id="Path_32" data-name="Path 32" d="M625.989,995.4c-4.81,0-5.953,3.752-6.063,6.91,0,.092,0,3.452,0,3.484,0,3.112.952,4.9,2.26,5.9l4.06-16.283C626.159,995.408,626.076,995.4,625.989,995.4Z" transform="translate(-619.922 -995.404)" fill="#f28222"/>
            <path id="Path_33" data-name="Path 33" d="M637.185,1002.315c-.117-3.089-1.228-6.759-5.807-6.891l-4.06,16.284a6.231,6.231,0,0,0,3.807,1.118c2.766,0,6.065-1.217,6.065-7.014C637.19,1003.557,637.188,1002.38,637.185,1002.315Z" transform="translate(-625.057 -995.418)" fill="#f7921e"/>
          </g>
        </g>
      </g>
      <g id="Group_31" data-name="Group 31" transform="translate(15.103 9.503)">
        <path id="Path_34" data-name="Path 34" d="M677.584,1043.738c0-2.846,0-8.454-.005-8.537-.148-3.9-1.55-8.528-7.328-8.695-.105,0-.21-.008-.319-.008-6.069,0-7.511,4.735-7.65,8.719,0,.115-.005,8.479-.005,8.52Z" transform="translate(-657.488 -1026.499)" fill="#574239"/>
        <g id="Group_30" data-name="Group 30" transform="translate(0 1.599)">
          <path id="Path_35" data-name="Path 35" d="M695.537,1093.126a15.91,15.91,0,0,0-4.565-1.1l-3.673,14.729h11.287a.827.827,0,0,0,.826-.775c.013-.22.335-5.395.335-6.733A6.291,6.291,0,0,0,695.537,1093.126Z" transform="translate(-674.864 -1073.599)" fill="#3bc2d4"/>
          <path id="Path_36" data-name="Path 36" d="M659.089,1091.444c-8.281,0-12.48,2.49-12.48,7.4,0,1.335.3,6.509.309,6.728a.827.827,0,0,0,.826.779h11.3l3.673-14.729A33.6,33.6,0,0,0,659.089,1091.444Z" transform="translate(-646.609 -1073.194)" fill="#359fbc"/>
          <g id="Group_29" data-name="Group 29" transform="translate(6.642)">
            <path id="Path_37" data-name="Path 37" d="M674.143,1031.731c-4.6,0-5.692,3.588-5.8,6.607,0,.088,0,3.3,0,3.332,0,2.975.91,4.689,2.161,5.637l3.882-15.57C674.305,1031.735,674.226,1031.731,674.143,1031.731Z" transform="translate(-668.342 -1031.731)" fill="#f28222"/>
            <path id="Path_38" data-name="Path 38" d="M684.849,1038.339c-.112-2.954-1.175-6.463-5.553-6.589l-3.882,15.57a5.956,5.956,0,0,0,3.64,1.07c2.645,0,5.8-1.164,5.8-6.707C684.853,1039.526,684.851,1038.4,684.849,1038.339Z" transform="translate(-673.253 -1031.744)" fill="#f7921e"/>
          </g>
        </g>
        <path id="Path_39" data-name="Path 39" d="M679.651,1037.511c-.116-3.075-1.221-6.728-5.775-6.859-.083,0-.166-.006-.252-.006-4.783,0-5.919,3.736-6.03,6.879Z" transform="translate(-661.181 -1029.379)" fill="#574239"/>
      </g>
    </g>
    <g id="Group_85" data-name="Group 85" transform="translate(4.762 60.264)">
      <g id="Group_83" data-name="Group 83" transform="translate(27.022)">
        <path id="Path_108" data-name="Path 108" d="M2296.565,437.17a4.865,4.865,0,0,0-3.464-1.436h0a4.863,4.863,0,0,0-3.458,1.428l-9.614,9.521h-3.48a4.881,4.881,0,0,0,.275-1.6,5.088,5.088,0,0,0-4.9-5.353H2260.39l-2.257,9.054-2.869,11.5h23.092a4.865,4.865,0,0,0,3.464-1.435l14.746-14.745A4.907,4.907,0,0,0,2296.565,437.17Z" transform="translate(-2255.264 -435.734)" fill="#f7921e"/>
      </g>
      <g id="Group_84" data-name="Group 84" transform="translate(0 3.991)">
        <path id="Path_109" data-name="Path 109" d="M2218.127,450.945h2.048l1.367-5.482h-14.133a4.927,4.927,0,0,0-3.464,1.435l-14.177,14.175c-.641.641-.333,1.285,0,2.321,0,0,4.283,15.037,4.609,15.363a1.641,1.641,0,0,0,2.32,0l12.741-12.74h6.978l2.868-11.5.525-2.1h-1.682Z" transform="translate(-2189.394 -445.463)" fill="#f28222"/>
        <path id="Path_110" data-name="Path 110" d="M2281.7,458.827h-17.8l-.366,1.467h17.9A3.037,3.037,0,0,0,2281.7,458.827Z" transform="translate(-2233.12 -453.345)" fill="#f28222"/>
        <path id="Path_111" data-name="Path 111" d="M2254.767,458.827v1.467h3.6l.366-1.467Z" transform="translate(-2227.949 -453.345)" fill="#f7921e"/>
      </g>
    </g>
    <path id="Subtraction_1" data-name="Subtraction 1" d="M4.053,43.815H0V34.687A41.593,41.593,0,0,1,4.556,21.659,42.241,42.241,0,0,1,24.217,3.505,41.6,41.6,0,0,1,37.7,0h7.328a41.725,41.725,0,0,1,20.61,7.592,42.267,42.267,0,0,1,13.8,16.568l-3.779,2.82A37.363,37.363,0,0,0,4,41.808c0,.662.018,1.337.053,2.006Z" transform="translate(0 0)" fill="#3bc2d4" stroke="rgba(0,0,0,0)" stroke-miterlimit="10" stroke-width="1"/>
    <g id="Group_91" data-name="Group 91" transform="translate(72.108 31.926)">
      <path id="Path_77" data-name="Path 77" d="M1313.251,718.159c0,.085,0,.974,0,1.885h.645a3.24,3.24,0,0,1,1.459.351c0-2.221,0-2.277,0-2.3-.157-4.149-2.079-5.657-4.082-6.087l-.507,2.035C1312.033,714.282,1313.138,715.184,1313.251,718.159Z" transform="translate(-1302.327 -711.863)" fill="#9b9289"/>
      <path id="Path_78" data-name="Path 78" d="M1299.8,742.916a3.24,3.24,0,0,0-1.459-.351h-4.63l-4.056,16.265a3.23,3.23,0,0,0,.705.079h7.98a3.834,3.834,0,0,0,3.59-4.03v-8.284A4.079,4.079,0,0,0,1299.8,742.916Zm-4.4,8.841v1.256a1.052,1.052,0,1,1-2.1,0v-1.256a2.263,2.263,0,1,1,2.1,0Z" transform="translate(-1286.767 -734.385)" fill="#f7921e"/>
      <path id="Path_79" data-name="Path 79" d="M1301.165,761.3a2.262,2.262,0,0,0-1.052,4.265v1.256a1.052,1.052,0,1,0,2.1,0V765.57a2.262,2.262,0,0,0-1.052-4.265Z" transform="translate(-1293.585 -748.197)" fill="#69564d"/>
      <path id="Path_80" data-name="Path 80" d="M1286.185,717.708c0,.059,0,1.5,0,2.366a3.251,3.251,0,0,1,1.617-.437h.487c0-.816,0-1.806,0-1.871.073-2.08.538-4.206,3.425-4.206a5.082,5.082,0,0,1,.934.077l.508-2.035a6.89,6.89,0,0,0-1.442-.145C1289.291,711.456,1286.367,712.538,1286.185,717.708Z" transform="translate(-1284.21 -711.456)" fill="#837d75"/>
      <path id="Path_81" data-name="Path 81" d="M1282.757,742.565h-.487a3.252,3.252,0,0,0-1.617.437,4.107,4.107,0,0,0-1.973,3.593v8.284a3.948,3.948,0,0,0,2.885,3.951l4.056-16.265Z" transform="translate(-1278.681 -734.385)" fill="#f28222"/>
    </g>
  </g>
</svg>
