<svg xmlns="http://www.w3.org/2000/svg" width="140.856" height="65.268" viewBox="0 0 140.856 65.268">
  <g id="reclamaciones" transform="translate(-1628 -1882)">
    <g id="Group_245" data-name="Group 245" transform="translate(1628 1887.647)">
      <path id="Path_180" data-name="Path 180" d="M2324.712,1005.716H2277.54l-14.865,59.621h62.038a9.35,9.35,0,0,0,9.339-9.34v-40.942A9.35,9.35,0,0,0,2324.712,1005.716Z" transform="translate(-2223.177 -1005.716)" fill="#8adae5"/>
      <path id="Path_181" data-name="Path 181" d="M2213.743,1005.716a9.349,9.349,0,0,0-9.339,9.339V1056a9.35,9.35,0,0,0,9.339,9.34H2243.9l14.865-59.621Z" transform="translate(-2204.404 -1005.716)" fill="#cceff4"/>
    </g>
    <g id="Group_246" data-name="Group 246" transform="translate(1639.073 1900.839)">
      <path id="Path_182" data-name="Path 182" d="M2247.713,1030.6h-24.262a2.711,2.711,0,1,1,0-5.423h24.262a2.711,2.711,0,0,1,0,5.423Z" transform="translate(-2220.74 -1025.178)" fill="#da1a32"/>
    </g>
    <g id="Group_247" data-name="Group 247" transform="translate(1639.073 1914.937)">
      <path id="Path_183" data-name="Path 183" d="M2248.013,1051.4h-24.562a2.711,2.711,0,1,1,0-5.423h24.562a2.711,2.711,0,1,1,0,5.423Z" transform="translate(-2220.74 -1045.976)" fill="#b9aca2"/>
    </g>
    <g id="Group_248" data-name="Group 248" transform="translate(1639.073 1929.117)">
      <path id="Path_184" data-name="Path 184" d="M2248.013,1072.319h-24.562a2.711,2.711,0,1,1,0-5.423h24.562a2.711,2.711,0,1,1,0,5.423Z" transform="translate(-2220.74 -1066.896)" fill="#b9aca2"/>
    </g>
    <g id="Group_253" data-name="Group 253" transform="translate(1720.956 1882)">
      <g id="Group_250" data-name="Group 250" transform="translate(0 0)">
        <g id="Group_249" data-name="Group 249">
          <path id="Path_185" data-name="Path 185" d="M2344.253,1046.68a2.709,2.709,0,0,1-2.573-3.565l3.279-9.877a2.7,2.7,0,0,1,.623-1.029l32.835-34a2.71,2.71,0,0,1,1.926-.828h.024a2.712,2.712,0,0,1,1.917.794l6.363,6.361a2.711,2.711,0,0,1,.043,3.79l-32.646,34.182a2.709,2.709,0,0,1-1.091.7l-9.831,3.329A2.709,2.709,0,0,1,2344.253,1046.68Z" transform="translate(-2341.541 -997.385)" fill="#f28222"/>
        </g>
      </g>
      <g id="Group_252" data-name="Group 252" transform="translate(0.799 3.607)">
        <g id="Group_251" data-name="Group 251">
          <path id="Path_186" data-name="Path 186" d="M2385.477,1002.707l3.549,3.548a2.711,2.711,0,0,1,.043,3.79l-32.646,34.182a2.71,2.71,0,0,1-1.091.7l-9.831,3.33a2.715,2.715,0,0,1-2.782-.645Z" transform="translate(-2342.72 -1002.707)" fill="#e65f2b"/>
        </g>
      </g>
      <path id="Path_187" data-name="Path 187" d="M2342.426,1061.845l4.286,4.84s-2.665,1.676-4.34-.026S2342.426,1061.845,2342.426,1061.845Z" transform="translate(-2341.573 -1018.152)" fill="#69564d"/>
    </g>
    <g id="Group_258" data-name="Group 258" transform="translate(1688.667 1900.839)">
      <g id="Group_257" data-name="Group 257" transform="translate(0 0)">
        <path id="Path_197" data-name="Path 197" d="M1635.9,1062.409a16.169,16.169,0,0,0-4.639-1.117l-3.733,14.971H1639a.84.84,0,0,0,.839-.787c.013-.223.341-5.483.341-6.843A6.4,6.4,0,0,0,1635.9,1062.409Z" transform="translate(-1614.886 -1042.562)" fill="#3bc2d4"/>
        <path id="Path_198" data-name="Path 198" d="M1578.993,1060.415c-8.417,0-12.685,2.531-12.685,7.521,0,1.357.3,6.616.314,6.838a.841.841,0,0,0,.839.792h11.487l3.733-14.971A34.184,34.184,0,0,0,1578.993,1060.415Z" transform="translate(-1566.308 -1041.866)" fill="#359fbc"/>
        <g id="Group_256" data-name="Group 256" transform="translate(6.751)">
          <path id="Path_199" data-name="Path 199" d="M1604.9,970.58c-4.675,0-5.785,3.647-5.893,6.716,0,.089,0,3.355,0,3.386,0,3.024.925,4.766,2.2,5.729l3.946-15.825C1605.066,970.584,1604.985,970.58,1604.9,970.58Z" transform="translate(-1599.004 -970.58)" fill="#f28222"/>
          <path id="Path_200" data-name="Path 200" d="M1619.234,977.306c-.114-3-1.194-6.569-5.644-6.7l-3.946,15.825a6.054,6.054,0,0,0,3.7,1.087c2.688,0,5.894-1.183,5.894-6.817C1619.238,978.513,1619.236,977.37,1619.234,977.306Z" transform="translate(-1607.447 -970.603)" fill="#f7921e"/>
        </g>
      </g>
    </g>
  </g>
</svg>
