<svg xmlns="http://www.w3.org/2000/svg" xmlns:xlink="http://www.w3.org/1999/xlink" width="109.976" height="83.238" viewBox="0 0 109.976 83.238">
  <defs>
    <filter id="Ellipse_20" x="34.723" y="1.349" width="42.108" height="42.108" filterUnits="userSpaceOnUse">
      <feOffset dy="3" input="SourceAlpha"/>
      <feGaussianBlur stdDeviation="3" result="blur"/>
      <feFlood flood-opacity="0.161"/>
      <feComposite operator="in" in2="blur"/>
      <feComposite in="SourceGraphic"/>
    </filter>
  </defs>
  <g id="tarifario-de-servicios" transform="translate(69.785 -1829.239)">
    <g id="Group_328" data-name="Group 328" transform="translate(-52.248 1829.239)">
      <path id="Path_229" data-name="Path 229" d="M945.8,778.031h56.646c0-1.473,0-41-.012-52.145a10.534,10.534,0,0,0-3.1-7.462l-14.879-14.866a11.233,11.233,0,0,0-7.962-3.3l-2.715.019c-.272,0-1.157,0-2.374.005h0Z" transform="translate(-925.663 -700.251)" fill="#cceff4"/>
      <path id="Path_230" data-name="Path 230" d="M944.052,700.267c-1.369-.01-2.669-.02-3.9-.02-7.309,0-13.24.272-17.513,3.693-4.163,3.333-6,8.819-6.331,18.973-.011.5-.019,53.5-.019,55.114h20.138l25.605-77.746h0c-4.133.006-12.126.011-13.217.011C947.139,700.291,945.554,700.279,944.052,700.267Z" transform="translate(-916.286 -700.247)" fill="#8adae5"/>
    </g>
    <g id="Group_329" data-name="Group 329" transform="translate(-37.058 1866.765)">
      <g id="Group_282" data-name="Group 282" transform="translate(0 24.563)">
        <path id="Path_232" data-name="Path 232" d="M981.444,773.735H941.278a2.729,2.729,0,1,1,0-5.458h40.165a2.729,2.729,0,0,1,0,5.458Z" transform="translate(-938.549 -768.277)" fill="#da1a32"/>
      </g>
      <g id="Group_283" data-name="Group 283" transform="translate(0 12.281)">
        <path id="Path_233" data-name="Path 233" d="M981.444,751.014H941.278a2.729,2.729,0,0,1,0-5.458h40.165a2.729,2.729,0,0,1,0,5.458Z" transform="translate(-938.549 -745.556)" fill="#b9aca2"/>
      </g>
      <g id="Group_284" data-name="Group 284" transform="translate(0 0)">
        <path id="Path_234" data-name="Path 234" d="M981.444,728.575H941.278a2.729,2.729,0,0,1,0-5.458h40.165a2.729,2.729,0,0,1,0,5.458Z" transform="translate(-938.549 -723.117)" fill="#b9aca2"/>
      </g>
    </g>
    <path id="Path_264" data-name="Path 264" d="M1000.733,704a11.265,11.265,0,0,0-3.411-2.339h-.291v4.021c0,7.522.647,12.417,3.955,15.185,3,2.514,7.275,2.514,13.756,2.514h3.548a10.5,10.5,0,0,0-2.677-4.514Z" transform="translate(-994.187 1128.542)" fill="#8adae5"/>
    <g id="Group_327" data-name="Group 327" transform="translate(-69.785 1907.019)">
      <path id="Path_236" data-name="Path 236" d="M1014.654,814.244H944.9l-1.361,5.458h71.112a2.729,2.729,0,0,0,0-5.458Z" transform="translate(-907.407 -814.244)" fill="#726059"/>
      <path id="Path_237" data-name="Path 237" d="M927.775,814.244H893.311a2.729,2.729,0,1,0,0,5.458h33.405l1.361-5.458Z" transform="translate(-890.582 -814.244)" fill="#574239"/>
    </g>
    <g id="Group_330" data-name="Group 330" transform="translate(0.982 1837.224)">
      <g id="Group_250" data-name="Group 250" transform="translate(0 0)">
        <g id="Group_249" data-name="Group 249">
          <path id="Path_185" data-name="Path 185" d="M2343.391,1031.019a1.849,1.849,0,0,1-1.756-2.433l2.237-6.739a1.846,1.846,0,0,1,.425-.7l22.4-23.2a1.85,1.85,0,0,1,1.314-.565h.016a1.851,1.851,0,0,1,1.308.542l4.341,4.34a1.85,1.85,0,0,1,.029,2.586l-22.274,23.322a1.85,1.85,0,0,1-.744.474l-6.708,2.272A1.846,1.846,0,0,1,2343.391,1031.019Z" transform="translate(-2341.54 -997.385)" fill="#f28222"/>
        </g>
      </g>
      <g id="Group_252" data-name="Group 252" transform="translate(0.545 2.461)">
        <g id="Group_251" data-name="Group 251">
          <path id="Path_186" data-name="Path 186" d="M2371.893,1002.707l2.422,2.421a1.85,1.85,0,0,1,.03,2.586l-22.275,23.322a1.846,1.846,0,0,1-.744.474l-6.708,2.272a1.851,1.851,0,0,1-1.9-.44Z" transform="translate(-2342.72 -1002.707)" fill="#e65f2b"/>
        </g>
      </g>
      <path id="Path_187" data-name="Path 187" d="M2342.177,1061.845l2.925,3.3s-1.818,1.144-2.961-.018S2342.177,1061.845,2342.177,1061.845Z" transform="translate(-2341.595 -1032.033)" fill="#69564d"/>
    </g>
    <g id="Group_331" data-name="Group 331" transform="translate(-27.027 1835.899)">
      <g transform="matrix(1, 0, 0, 1, -42.76, -6.66)" filter="url(#Ellipse_20)">
        <circle id="Ellipse_20-2" data-name="Ellipse 20" cx="12.054" cy="12.054" r="12.054" transform="translate(43.72 7.35)" fill="#fff"/>
      </g>
      <g id="Group_308" data-name="Group 308" transform="translate(0 0)">
        <g id="Group_300" data-name="Group 300" transform="translate(0 0)">
          <path id="Path_251" data-name="Path 251" d="M974.864,698.123l-6.032,24.194c.1,0,.2.009.3.009a12.781,12.781,0,0,0,5.737-24.2Z" transform="translate(-956.346 -696.762)" fill="#f7921e"/>
          <path id="Path_252" data-name="Path 252" d="M953.545,695.064a12.779,12.779,0,0,0-.3,25.555l6.032-24.194A12.726,12.726,0,0,0,953.545,695.064Z" transform="translate(-940.764 -695.064)" fill="#f28222"/>
        </g>
        <g id="Group_301" data-name="Group 301" transform="translate(9.259 4.78)">
          <path id="Path_253" data-name="Path 253" d="M965.983,719.925v1.55a.331.331,0,0,1-.33.33h-.775a.329.329,0,0,1-.33-.33v-1.484a14.3,14.3,0,0,1-2.359-.231c-.28-.048-.314-.115-.314-.3v-.675a.256.256,0,0,1,.28-.265h.051c.759.066,1.962.149,2.721.149,1.98,0,2.506-.824,2.506-1.979,0-.823-.479-1.285-1.98-2.209l-1.6-.973c-1.515-.923-2.275-1.764-2.275-3.083,0-1.716,1.072-2.639,2.969-2.87v-1.419a.329.329,0,0,1,.33-.328h.775a.331.331,0,0,1,.33.328v1.37a24.128,24.128,0,0,1,2.407.215c.165.032.281.114.281.28v.708a.256.256,0,0,1-.281.264h-.032c-.726-.05-1.88-.149-2.836-.149-1.7,0-2.426.4-2.426,1.6,0,.774.544,1.236,1.8,1.995l1.517.906c1.913,1.139,2.589,2.046,2.589,3.364a3.067,3.067,0,0,1-3.016,3.233" transform="translate(-961.579 -705.81)" fill="#e3dfd7" stroke="#e3dfd7" stroke-miterlimit="10" stroke-width="2"/>
        </g>
      </g>
    </g>
  </g>
</svg>
