<svg xmlns="http://www.w3.org/2000/svg" xmlns:xlink="http://www.w3.org/1999/xlink" width="83.146" height="74.917" viewBox="0 0 83.146 74.917">
  <defs>
    <filter id="Ellipse_19" x="33.854" y="25.625" width="49.292" height="49.292" filterUnits="userSpaceOnUse">
      <feOffset dy="2" input="SourceAlpha"/>
      <feGaussianBlur stdDeviation="1.5" result="blur"/>
      <feFlood flood-opacity="0.161"/>
      <feComposite operator="in" in2="blur"/>
      <feComposite in="SourceGraphic"/>
    </filter>
  </defs>
  <g id="transferencias-internacionales" transform="translate(-1578.5 -343.684)">
    <g id="Group_277" data-name="Group 277" transform="translate(673.503 -633.537)">
      <g id="Group_275" data-name="Group 275" transform="translate(904.997 977.221)">
        <path id="Path_214" data-name="Path 214" d="M960,1116.976v-8.42a29.349,29.349,0,0,1-5.781-.969l-2.341,9.389Z" transform="translate(-930.186 -1047.261)" fill="none"/>
        <path id="Path_215" data-name="Path 215" d="M973.433,1131.578h15.984a1.851,1.851,0,1,0,0-3.7H975.284v1.851A1.851,1.851,0,0,1,973.433,1131.578Z" transform="translate(-941.765 -1058.162)" fill="#b3aaa2"/>
        <path id="Path_216" data-name="Path 216" d="M958.931,1129.727v-1.851h-8.122l-.924,3.7h10.9A1.851,1.851,0,0,1,958.931,1129.727Z" transform="translate(-929.114 -1058.162)" fill="#b3aaa2"/>
        <path id="Path_217" data-name="Path 217" d="M969.433,1109.68v8.42h3.7v-8.409c-.593.036-1.185.06-1.777.06C970.714,1109.752,970.073,1109.723,969.433,1109.68Z" transform="translate(-939.616 -1048.386)" fill="#b3aaa2"/>
        <path id="Path_218" data-name="Path 218" d="M969.433,1129.727a1.851,1.851,0,0,0,3.7,0v-1.851h-3.7Z" transform="translate(-939.616 -1058.162)" fill="#b3aaa2"/>
        <path id="Path_219" data-name="Path 219" d="M1021.712,1003.119c.51.6,1,1.228,1.462,1.876a19.7,19.7,0,0,0,3.305-4.234C1025.691,1000.7,1023.621,1001.737,1021.712,1003.119Z" transform="translate(-967.703 -989.867)" fill="none"/>
        <path id="Path_220" data-name="Path 220" d="M998.875,1102.538l2.2,4.267a1.851,1.851,0,1,0,3.289-1.7l-2.208-4.272c-.528.316-1.064.622-1.615.907S999.437,1102.291,998.875,1102.538Z" transform="translate(-955.434 -1043.633)" fill="#b3aaa2"/>
        <path id="Path_221" data-name="Path 221" d="M992.107,998.847c1.909-1.382,3.979-2.415,4.768-2.358a19.7,19.7,0,0,1-3.305,4.234c-4.816,5.167-14.283,13.606-25.594,21.774l-1.367,5.482a238.379,238.379,0,0,0,19.5-15.087c4.286-3.7,7.328-6.6,9.49-8.884,5.813-6.157,5.205-7.875,4.926-8.651a3.687,3.687,0,0,0-2.532-2.412c-2.746-.745-6.5,1.7-8.467,3.2A28.944,28.944,0,0,1,992.107,998.847Z" transform="translate(-938.099 -985.595)" fill="#f9aa4f"/>
        <path id="Path_222" data-name="Path 222" d="M936.743,1127.876a1.851,1.851,0,1,0,0,3.7h5.087l.924-3.7Z" transform="translate(-921.059 -1058.162)" fill="#88827d"/>
        <path id="Path_223" data-name="Path 223" d="M941.428,982.6l-2.26-4.374a1.851,1.851,0,1,0-3.289,1.7l2.26,4.374c.527-.316,1.062-.621,1.615-.907S940.864,982.845,941.428,982.6Z" transform="translate(-921.478 -977.221)" fill="#88827d"/>
        <path id="Path_224" data-name="Path 224" d="M929.338,1079.476a29.3,29.3,0,0,0,12.773,7.28l4.474-17.941c-4.176,2.9-8.318,5.566-12.255,7.876C932.412,1077.817,930.766,1078.732,929.338,1079.476Z" transform="translate(-918.075 -1026.431)" fill="#359fbc"/>
        <path id="Path_225" data-name="Path 225" d="M927.82,985.96c-.563.248-1.123.508-1.674.792s-1.088.592-1.615.907a29.263,29.263,0,0,0-11.327,37.678c.128.268.252.537.39.8.446.863.932,1.693,1.45,2.492q.721,1.114,1.529,2.142c1.475-.739,3.328-1.743,5.678-3.122,5.36-3.146,10.6-6.63,15.5-10.166l8.3-33.267A28.968,28.968,0,0,0,927.82,985.96Z" transform="translate(-907.871 -980.584)" fill="#359fbc"/>
        <path id="Path_226" data-name="Path 226" d="M919.379,1067.134c-2.349,1.379-4.2,2.383-5.678,3.122a19.129,19.129,0,0,1-4.961,1.965c.223-.706,1.216-2.2,3.431-4.107-.518-.8-1-1.628-1.45-2.492-.137-.266-.261-.535-.39-.8-5.66,4.6-5.837,7.672-4.914,9.473a2.937,2.937,0,0,0,1.842,1.5,3.966,3.966,0,0,0,1.125.153c1.5,0,3.768-.7,7.876-2.836,1.427-.744,3.073-1.659,4.991-2.785,3.938-2.311,8.08-4.979,12.255-7.876l1.367-5.482C929.979,1060.5,924.739,1063.988,919.379,1067.134Z" transform="translate(-904.997 -1020.066)" fill="#f28222"/>
      </g>
      <g id="Group_276" data-name="Group 276" transform="translate(929.033 980.856)">
        <path id="Path_227" data-name="Path 227" d="M990.568,1017.319c-.054-.1-.113-.2-.167-.306-2.161,2.289-5.2,5.186-9.49,8.884a238.369,238.369,0,0,1-19.5,15.087l-4.474,17.942a29.349,29.349,0,0,0,5.781.968c.64.043,1.281.072,1.925.071.592,0,1.184-.024,1.777-.06a29.019,29.019,0,0,0,9.922-2.4q.843-.371,1.671-.8c.551-.285,1.087-.591,1.615-.906a29.222,29.222,0,0,0,10.936-38.482Z" transform="translate(-956.94 -1002.234)" fill="#3bc2d4"/>
        <path id="Path_228" data-name="Path 228" d="M995.157,996.57c-.462-.648-.952-1.272-1.462-1.876a28.941,28.941,0,0,0-13.439-8.966c-.794-.253-1.594-.468-2.4-.651l-8.3,33.267C980.874,1010.176,990.341,1001.736,995.157,996.57Z" transform="translate(-963.722 -985.076)" fill="#3bc2d4"/>
      </g>
    </g>
    <g id="Group_278" data-name="Group 278" transform="translate(-4.246 6.99)">
      <g transform="matrix(1, 0, 0, 1, 1582.75, 336.69)" filter="url(#Ellipse_19)">
        <circle id="Ellipse_19-2" data-name="Ellipse 19" cx="20.146" cy="20.146" r="20.146" transform="translate(38.35 28.12)" fill="#fff"/>
      </g>
      <g id="Group_265" data-name="Group 265" transform="translate(1627.005 370.782)">
        <g id="Group_264" data-name="Group 264">
          <g id="Group_262" data-name="Group 262">
            <path id="Path_201" data-name="Path 201" d="M1590.759,387.648h-9.232V381l0,0a.832.832,0,0,0-.526-.831l-3.376,13.538,2.435,2.615a.849.849,0,0,0,1.471-.542h0v0s0-.009,0-.014v-6.416h9.232a.85.85,0,0,0,0-1.7Z" transform="translate(-1572.991 -380.106)" fill="#f7921e"/>
            <path id="Path_202" data-name="Path 202" d="M1557.454,380.072l-6.836,7.445a.85.85,0,0,0,0,1.154l4.4,4.729,3.376-13.538A.848.848,0,0,0,1557.454,380.072Z" transform="translate(-1550.395 -379.799)" fill="#f28222"/>
          </g>
          <g id="Group_263" data-name="Group 263" transform="translate(8.535 11.888)">
            <path id="Path_203" data-name="Path 203" d="M1669.357,469.972l-4.728-5.149-3.391,13.6a.8.8,0,0,0,.078.089.85.85,0,0,0,1.2-.043l2.435-2.615,4.4-4.729A.85.85,0,0,0,1669.357,469.972Z" transform="translate(-1650.926 -462.254)" fill="#3bc2d4"/>
            <path id="Path_204" data-name="Path 204" d="M1612.187,449.988a.848.848,0,0,0-.945-.21.832.832,0,0,0-.526.831l0,0v6.652h-9.27a.85.85,0,1,0,0,1.7h9.27v6.416s0,.009,0,.014v0h0a.847.847,0,0,0,.192.5l3.392-13.6Z" transform="translate(-1600.592 -449.715)" fill="#359fbc"/>
          </g>
        </g>
      </g>
    </g>
  </g>
</svg>
