<svg id="voz-del-cliente" xmlns="http://www.w3.org/2000/svg" xmlns:xlink="http://www.w3.org/1999/xlink" width="83.878" height="73.416" viewBox="0 0 83.878 73.416">
  <defs>
    <clipPath id="clip-path">
      <rect id="Rectangle_140" data-name="Rectangle 140" width="83.878" height="73.416" fill="none"/>
    </clipPath>
  </defs>
  <g id="Group_498" data-name="Group 498" clip-path="url(#clip-path)">
    <path id="Path_1511" data-name="Path 1511" d="M79.457,93.145a35.225,35.225,0,0,0-10.107-2.433l-8.133,32.613H86.211a1.831,1.831,0,0,0,1.828-1.716c.028-.486.742-11.945.742-14.908,0-6.324-3.137-10.884-9.324-13.557" transform="translate(-33.682 -49.909)" fill="#3bc2d4"/>
    <path id="Path_1512" data-name="Path 1512" d="M27.634,89.834C9.3,89.834,0,95.347,0,106.219c0,2.956.656,14.413.684,14.9a1.831,1.831,0,0,0,1.828,1.725H27.536l8.133-32.613a74.435,74.435,0,0,0-8.034-.395" transform="translate(0 -49.426)" fill="#359fbc"/>
    <path id="Path_1513" data-name="Path 1513" d="M45.541,0C35.357,0,32.938,7.944,32.7,14.629c0,.194-.008,7.308-.008,7.376,0,6.588,2.016,10.383,4.785,12.481L46.077.012C45.9.009,45.725,0,45.541,0" transform="translate(-17.989 0.001)" fill="#f28222"/>
    <path id="Path_1514" data-name="Path 1514" d="M64.227,14.618c-.248-6.541-2.6-14.31-12.3-14.59L43.336,34.5A13.189,13.189,0,0,0,51.4,36.872c5.857,0,12.841-2.577,12.841-14.85,0-4.775,0-7.265-.009-7.4" transform="translate(-23.843 -0.015)" fill="#f7921e"/>
    <path id="Path_1515" data-name="Path 1515" d="M131.017,63.6A19.711,19.711,0,0,0,95.964,80.834L92.04,88.255c-.024.048-.024.1-.044.146a1.575,1.575,0,0,0-.093.318,1.529,1.529,0,0,0-.031.327,1.291,1.291,0,0,0-.014.153,1.328,1.328,0,0,0,.048.157,1.6,1.6,0,0,0,.084.279,1.654,1.654,0,0,0,.156.292,1.714,1.714,0,0,0,.166.212,1.608,1.608,0,0,0,.283.231,1.192,1.192,0,0,0,.132.106c.036.019.077.027.114.043a1.228,1.228,0,0,0,.13.05,1.651,1.651,0,0,0,.52.1h0a1.687,1.687,0,0,0,.178-.009l8.33-.895A19.726,19.726,0,0,0,131.017,63.6" transform="translate(-50.539 -30.224)" fill="#73d3e1"/>
    <path id="Path_1516" data-name="Path 1516" d="M124.075,96.252a2.714,2.714,0,1,1-2.714-2.714,2.714,2.714,0,0,1,2.714,2.714" transform="translate(-65.279 -51.464)" fill="#fff"/>
    <path id="Path_1517" data-name="Path 1517" d="M142.376,96.252a2.714,2.714,0,1,1-2.714-2.714,2.714,2.714,0,0,1,2.714,2.714" transform="translate(-75.348 -51.464)" fill="#fff"/>
    <path id="Path_1518" data-name="Path 1518" d="M162.711,96.252A2.714,2.714,0,1,1,160,93.538a2.714,2.714,0,0,1,2.714,2.714" transform="translate(-86.536 -51.464)" fill="#fff"/>
  </g>
</svg>
