<?xml version="1.0" encoding="utf-8"?>
<!-- Generator: Adobe Illustrator 25.4.1, SVG Export Plug-In . SVG Version: 6.00 Build 0)  -->
<svg version="1.1" id="Layer_1" xmlns="http://www.w3.org/2000/svg" xmlns:xlink="http://www.w3.org/1999/xlink" x="0px" y="0px"
	 viewBox="0 0 278 253.1" style="enable-background:new 0 0 278 253.1;" xml:space="preserve">
<style type="text/css">
	.st0{fill:#D37C21;}
	.st1{fill:#EB9924;}
	.st2{fill:#00A5C2;}
	.st3{fill:#00C1D5;}
	.st4{fill:#ED8B00;}
	.st5{fill:#E8E9DF;}
	.st6{fill:#00709E;}
	.st7{fill:#D0CBC3;}
	.st8{fill:#003B7A;}
	.st9{fill:none;}
</style>
<g>
	<path class="st0" d="M138.2,98.2l-12.3,49.4L115,191c-8.4-10.7-13.2-23.3-13.2-36.8C101.8,131.2,116.1,110.8,138.2,98.2"/>
	<path class="st1" d="M278,154.3c0,30.1-24.9,56.9-60.9,66l-11.9,29.8c-0.4,0.9-1,1.7-1.8,2.2c-0.6,0.4-1.4,0.7-2.2,0.8
		c-0.1,0-0.3,0-0.4,0c-1.6,0-3.2-0.8-4.1-2.2l-17.5-27.8c-27.4-2.6-50.5-14.7-64.1-32l10.8-43.5l12.3-49.4
		c7.3-4.2,15.5-7.5,24.3-9.8c8.6-2.2,17.8-3.4,27.4-3.4C238.4,84.9,278,116,278,154.3"/>
	<path class="st2" d="M162.7,0l-36.8,147.6H82.5L62,186.3c-1,2-3.1,3.2-5.3,3.2h0c-2.2,0-4.3-1.2-5.4-3.2l-1.1-2.1l-19.5-36.6h-5.5
		C11.3,147.6,0,136.3,0,122.4V25.1C0,11.3,11.3,0,25.1,0H162.7z"/>
	<path class="st3" d="M214.8,25.1v97.3c0,13.8-11.3,25.1-25.1,25.1h-63.8l24.3-97.5h9.5c3.4,0,6.1-2.7,6.1-6.1
		c0-3.4-2.7-6.1-6.1-6.1h-6.4l9.5-38h27C203.5,0,214.8,11.3,214.8,25.1"/>
	<path class="st1" d="M165.7,44c0,3.3-2.7,6.1-6.1,6.1h-9.5l3-12.1h6.4C163,38,165.7,40.7,165.7,44"/>
	<path class="st4" d="M153.2,38l-3,12.1H30.4c-3.3,0-6.1-2.7-6.1-6.1c0-3.4,2.7-6.1,6.1-6.1H153.2z"/>
	<path class="st4" d="M109,63.3H79.7H30.4c-3.4,0-6.1,2.7-6.1,6.1c0,3.3,2.7,6.1,6.1,6.1h46.2H109c3.3,0,6.1-2.7,6.1-6.1
		C115.1,66,112.3,63.3,109,63.3"/>
</g>
</svg>
